<svg width="50" height="50" viewBox="0 0 50 50" fill="none" xmlns="http://www.w3.org/2000/svg">
<path d="M0.444622 49.9897C0.251899 49.9897 0.0800106 49.8663 0.0227144 49.6862C-0.0554166 49.4547 0.0748018 49.2078 0.309195 49.1307C2.16351 48.5288 4.01261 47.8704 5.80962 47.1708L5.91901 47.073L6.96075 45.0051C7.03888 44.856 7.18994 44.7634 7.36183 44.7634C7.42954 44.7634 7.49725 44.7788 7.55976 44.8097C7.66914 44.8611 7.74727 44.9537 7.78373 45.0669C7.8202 45.18 7.81499 45.2984 7.75769 45.4012L7.37745 46.1523L7.6431 46.4352L8.15355 46.2191L8.25773 46.1214L9.4297 43.8014C9.50783 43.6523 9.65888 43.5597 9.83077 43.5597C9.89848 43.5597 9.9662 43.5751 10.0287 43.606C10.1381 43.6574 10.2162 43.75 10.2527 43.8632C10.2891 43.9763 10.2839 44.0947 10.2266 44.1975L9.75785 45.1286L10.0287 45.4064C10.3933 45.2418 10.7579 45.0772 11.1173 44.9074L11.2371 44.7325C11.2788 43.9455 12.9352 42.1348 17.8001 37.5617L17.847 37.5206C18.3314 37.0679 18.6856 36.7335 18.8211 36.5947C19.9566 35.427 21.0556 34.2541 22.0869 33.1121C22.1703 33.0195 22.2901 32.963 22.4203 32.963C22.4672 32.963 22.514 32.9733 22.5609 32.9835C22.6547 33.0144 22.7328 33.0761 22.7901 33.1584L23.1651 33.1019L23.6495 31.3992C23.6652 31.3374 23.6964 31.2809 23.7381 31.2346C26.1862 28.3848 28.2228 25.6842 29.9677 22.9887C30.6345 21.9547 31.3116 20.8333 32.0929 19.4547C32.171 19.3158 32.3221 19.2284 32.4836 19.2284C32.5148 19.2284 32.5513 19.2284 32.5825 19.2387C32.7753 19.2798 32.9159 19.4444 32.9315 19.6399L32.9524 19.9691L33.3638 19.9949L34.1816 15.6944C34.192 15.6481 34.2024 15.607 34.2233 15.571L34.4941 15.0617C36.9579 10.4527 39.5102 5.6893 43.0834 1.72325C44.1147 0.581276 45.0991 0 46.0002 0C46.219 0 46.4378 0.0360082 46.6513 0.102881C49.0734 0.889918 49.662 5.83848 49.7505 6.82099C50.511 14.928 49.537 21.358 46.7711 26.4763C46.7191 26.5741 46.6305 26.6461 46.5263 26.6821L45.7606 26.9547L45.7346 27.3302C45.8075 27.3714 45.87 27.428 45.9117 27.5C45.995 27.644 45.9898 27.8189 45.8961 27.9578C44.6408 29.8508 42.8854 31.7593 40.6821 33.6214C39.2289 34.8508 37.5829 36.0494 35.6557 37.2891C35.5932 37.3302 35.5203 37.356 35.4421 37.3611L33.4524 37.4897L33.3795 37.8807C33.5253 37.9475 33.6243 38.0813 33.6399 38.2407C33.6555 38.4105 33.5722 38.5751 33.4211 38.6626C33.4211 38.6626 32.9992 38.9146 32.9003 38.9712C29.5563 40.8796 25.9779 42.428 22.2692 43.5648L21.5921 43.7757C19.2273 44.5113 15.9927 45.5196 13.3988 45.5196C12.9716 45.5196 12.5601 45.4887 12.1799 45.427L12.0549 45.4424C11.5653 45.6739 11.0704 45.9053 10.5652 46.1317L10.6017 46.5175L11.1538 46.6512C11.2684 46.6821 11.3673 46.749 11.4299 46.8519C11.4924 46.9547 11.508 47.073 11.4819 47.1862C11.4299 47.3817 11.2528 47.5206 11.0496 47.5206C11.0132 47.5206 10.9767 47.5206 10.9402 47.5103L8.75777 46.9702L8.62755 46.9805L8.36711 47.0936C8.21606 47.1605 8.06501 47.2222 7.90874 47.2891L7.94 47.68L8.69005 47.8652C8.80465 47.8961 8.90361 47.963 8.96612 48.0658C9.02862 48.1687 9.04425 48.287 9.0182 48.4002C8.96612 48.5957 8.78902 48.7346 8.58588 48.7346C8.54942 48.7346 8.51296 48.7346 8.4765 48.7243L6.01276 48.1173H5.8565C4.12199 48.7809 2.35102 49.4136 0.590467 49.9794C0.548797 49.9949 0.501918 50 0.449831 50L0.444622 49.9897ZM44.2605 9.11523C44.5053 9.15123 44.6772 9.37243 44.6408 9.6142C44.5991 9.89712 43.5834 16.5844 37.6298 24.964C33.8899 30.2263 26.8685 37.8241 14.6489 44.1512L14.7687 44.537C16.998 44.2695 19.5972 43.4568 21.3212 42.9218L22.0036 42.7109C25.3893 41.6718 28.6656 40.2829 31.7491 38.5905L31.7179 38.215L30.1084 37.6492C29.9105 37.5823 29.7854 37.3817 29.8167 37.1708C29.8479 36.965 30.0198 36.8056 30.2282 36.7901L35.2129 36.4712L35.3119 36.4403C37.1454 35.2572 38.7132 34.1101 40.104 32.9372C41.828 31.4815 43.2709 30 44.396 28.5237L44.2241 28.1944L41.9114 28.2819C41.677 28.2819 41.4999 28.1276 41.4582 27.927C41.4166 27.716 41.5416 27.5 41.7447 27.428L45.9898 25.9259L46.1044 25.8282C48.6932 20.9053 49.5995 14.7068 48.8598 6.88786C48.6202 4.32613 47.74 1.37346 46.3701 0.925926C46.2555 0.889918 46.1305 0.869342 46.0002 0.869342C45.3544 0.869342 44.5991 1.34774 43.7449 2.29424C40.2446 6.17284 37.7184 10.8899 35.2807 15.4527L35.0567 15.8745L35.0359 15.9311L33.3013 25.0823C33.2649 25.2881 33.0774 25.4424 32.8638 25.4424C32.6138 25.427 32.4315 25.2521 32.4159 25.0309L32.1867 21.7953L31.8012 21.7027C31.4314 22.32 31.0772 22.8909 30.723 23.4362C28.9781 26.1368 26.9467 28.8323 24.5142 31.6718L24.4725 31.749L23.0974 36.5895C23.0453 36.7798 22.8682 36.9136 22.6651 36.9136C22.4047 36.893 22.238 36.7233 22.2224 36.5072L22.0973 34.9126L21.7379 34.7891C20.9931 35.5967 20.2274 36.3992 19.4721 37.1811C19.3263 37.3302 18.9461 37.6852 18.4304 38.1739C17.3418 39.1975 14.4509 41.9136 13.0133 43.5391L13.2633 43.858C40.4425 30.2572 43.7292 9.68107 43.7605 9.47531C43.7917 9.25926 43.9793 9.09465 44.198 9.09465C44.2189 9.09465 44.2397 9.09465 44.2605 9.09465V9.11523Z" fill="#002F27"/>
</svg>
