<svg width="67" height="49" viewBox="0 0 67 49" fill="none" xmlns="http://www.w3.org/2000/svg">
<g clip-path="url(#clip0_485_779)">
<path d="M22.1326 0.467873C22.1336 0.2084 22.3438 -0.000991403 22.6019 -1.99988e-05C22.8601 0.000951405 23.0684 0.212178 23.0675 0.471543C23.0492 3.73859 23.3192 6.86586 24.0852 9.6049C24.8402 12.3049 26.078 14.6237 28.0003 16.3175C31.2062 19.1424 34.4947 21.4308 37.837 23.3544C41.1599 25.2668 44.5273 26.8148 47.9155 28.1688C48.0535 28.1707 48.1867 28.1754 48.3168 28.184C48.9079 28.2223 49.4231 28.3321 49.9943 28.5714C50.5417 28.8007 51.137 29.1506 51.9065 29.6766C53.8232 30.9867 55.2237 31.0051 56.5403 31.0224C57.4514 31.0344 58.3261 31.0458 59.3152 31.4216C59.9017 31.6442 60.4968 31.9305 61.0856 32.2137C62.2559 32.7765 63.4001 33.3267 64.341 33.2801C64.369 33.2766 64.385 33.2745 64.4558 33.2656C65.3106 33.1588 65.7415 33.1049 66.3217 33.9036C66.9261 34.7358 67.0891 35.5149 66.9569 36.2548C66.8289 36.9713 66.4249 37.6194 65.8816 38.2274C65.2431 38.942 64.6269 39.3942 63.9884 39.6911C63.352 39.9871 62.7105 40.1216 62.0108 40.2046C60.8721 40.3396 60.019 40.3024 59.2404 40.1443C58.4635 39.9866 57.7926 39.7172 56.9955 39.3814C56.0653 38.9896 54.943 38.9609 53.7506 39.1241C52.5191 39.2927 51.2077 39.6685 49.9488 40.0666C44.8131 41.6911 40.8507 41.1046 36.9919 39.5485C35.8867 39.2043 34.8315 38.9515 33.8085 38.7603C32.759 38.5642 31.7381 38.4312 30.7293 38.3306C28.1855 38.0768 26.3705 37.9725 24.8066 38.0212C23.2566 38.0694 21.9426 38.2696 20.3924 38.6252C18.1583 39.1375 16.4828 39.4769 14.9339 39.7061C13.3796 39.9361 11.9417 40.0571 10.1863 40.1321C8.39198 40.2088 6.90964 40.0679 5.664 39.681C4.38668 39.2842 3.36315 38.6337 2.51651 37.7001C0.784564 35.7902 0.033295 33.4074 0.00096732 30.8715C-0.0354416 28.0199 0.843312 24.9758 2.25596 22.2069C2.34166 22.039 2.37646 21.9725 2.41523 21.8982C3.04385 20.697 4.42148 18.0641 4.45542 15.3083C4.42427 14.7869 4.38904 14.248 4.35006 13.6956C4.05138 9.45412 3.53983 4.48733 3.13546 0.569115C3.10915 0.310721 3.29624 0.0797431 3.55336 0.0532993C3.81048 0.0268555 4.04031 0.214876 4.06663 0.47327C4.47325 4.41285 4.98759 9.40641 5.28488 13.6292C5.30227 13.8758 5.31881 14.1199 5.3346 14.3612C5.35146 14.404 5.36242 14.45 5.36618 14.4983C5.38787 14.7696 5.39614 15.0402 5.39314 15.3092C5.59752 18.84 5.59559 21.6354 5.16588 22.5217C5.09349 22.671 5.01487 22.8245 4.92992 22.9824C4.85269 23.1261 4.77021 23.2714 4.68246 23.4183C4.54982 23.641 4.26263 23.7137 4.04096 23.5804C3.81928 23.4471 3.747 23.1585 3.87964 22.9357C3.95289 22.813 4.02807 22.68 4.10518 22.5367C4.17467 22.4075 4.24717 22.265 4.32278 22.109C4.51986 21.7026 4.6017 20.7133 4.60138 19.3374C4.14138 20.6207 3.58687 21.6807 3.24361 22.3366L3.08799 22.6341C1.74 25.2763 0.901201 28.1681 0.93557 30.8603C0.965105 33.1738 1.64409 35.3404 3.20925 37.0663C3.94161 37.8738 4.82917 38.4373 5.93884 38.782C7.0803 39.1366 8.46093 39.2647 10.1495 39.1926C11.8587 39.1196 13.2657 39.0008 14.798 38.774C16.3358 38.5464 17.989 38.2118 20.1869 37.7078C21.7921 37.3398 23.1582 37.1323 24.7807 37.0817C26.3893 37.0316 28.2392 37.1372 30.8208 37.3948C31.5567 37.4682 32.2998 37.5587 33.0567 37.6775C32.1918 37.2195 31.3143 36.7348 30.4126 36.2367C29.844 35.9226 29.2659 35.6031 28.7078 35.2995C28.48 35.1765 28.3948 34.8911 28.5172 34.6622C28.6396 34.4332 28.9236 34.3475 29.1514 34.4706C29.755 34.799 30.3139 35.1078 30.8636 35.4114C37.0346 38.8205 42.0349 41.5828 49.6701 39.1678C50.965 38.7581 52.3208 38.3708 53.6258 38.1921C54.9699 38.0081 56.2536 38.0482 57.3546 38.5121C58.1106 38.8305 58.7424 39.0852 59.4235 39.2234C60.103 39.3614 60.8636 39.3919 61.9007 39.269C62.514 39.1962 63.0683 39.082 63.596 38.8366C64.1217 38.5921 64.6376 38.2102 65.185 37.5976C65.6226 37.108 65.9444 36.6065 66.0367 36.0893C66.1249 35.5956 66.0029 35.0572 65.5664 34.4564C65.3137 34.1086 65.0642 34.1398 64.5693 34.2016L64.4458 34.2167C63.8603 34.2882 63.3252 34.366 62.8109 34.4407C62.249 34.5224 61.7107 34.6005 61.1876 34.661C61.4125 35.0686 61.7506 35.3044 62.1804 35.3978C62.8153 35.5358 63.6561 35.4012 64.6421 35.067C64.8871 34.9847 65.1522 35.1174 65.2342 35.3636C65.3163 35.6098 65.1841 35.8762 64.9391 35.9587C63.797 36.3457 62.7918 36.4949 61.9824 36.3189C61.1504 36.1382 60.5357 35.6419 60.1984 34.7514C58.3554 34.8665 56.6408 34.6245 54.6498 33.335C54.4322 33.1946 54.3689 32.9035 54.5086 32.6847C54.6484 32.466 54.938 32.4025 55.1557 32.5429C57.5004 34.0614 59.4866 33.9531 61.8888 33.6216C61.4905 33.4499 61.0879 33.2562 60.6825 33.0613C60.1197 32.7906 59.551 32.5171 58.9853 32.3023C58.1454 31.9834 57.3539 31.973 56.5294 31.9621C55.0764 31.943 53.5307 31.9227 51.3823 30.4541C50.671 29.9679 50.1265 29.6469 49.635 29.441C49.1673 29.2451 48.7443 29.1551 48.2581 29.1235C47.7247 29.089 47.1054 29.1217 46.2826 29.1651C45.7865 29.1913 45.217 29.2214 44.5135 29.244C44.2553 29.2521 44.0395 29.0484 44.0314 28.7891C44.0233 28.5296 44.226 28.3127 44.4842 28.3045C44.9055 28.291 45.2973 28.2735 45.6584 28.2555C42.8688 27.074 40.1012 25.7435 37.3714 24.1724C33.9842 22.2229 30.6463 19.8992 27.3843 17.025C25.3118 15.1989 23.985 12.7257 23.1833 9.8593C22.3927 7.03197 22.1139 3.81835 22.1326 0.468089V0.467873Z" fill="#002F27"/>
<path d="M47.9256 48.3512C48.0869 48.3429 48.2244 48.4677 48.2327 48.6298C48.2409 48.7919 48.1168 48.9301 47.9554 48.9384C45.8163 49.0526 44.1665 49.0166 42.5356 48.7602C40.9058 48.5039 39.3056 48.0287 37.2654 47.2641C36.8659 47.1144 36.5898 47.0094 36.3105 46.9034C33.6216 45.8817 30.7488 44.79 28.1923 44.789C25.6903 44.7879 23.1427 45.6984 20.5416 46.6282C17.9612 47.5505 15.3288 48.4914 12.5826 48.6086C11.3938 48.6594 10.3447 48.6139 9.41314 48.4639C8.46952 48.3119 7.6464 48.0529 6.92122 47.6784C6.77763 47.604 6.72114 47.4267 6.79524 47.2823C6.86935 47.138 7.0457 47.0813 7.1893 47.1557C7.85948 47.5019 8.62428 47.7419 9.50475 47.8838C10.3971 48.0275 11.4084 48.0707 12.5597 48.0216C15.2131 47.9083 17.8056 46.9816 20.3468 46.0734C22.9936 45.1273 25.5858 44.2008 28.1923 44.202C30.8582 44.2032 33.7811 45.3139 36.5167 46.3533C36.879 46.4909 37.2392 46.6278 37.4693 46.714C39.473 47.465 41.0393 47.9308 42.6248 48.1801C44.2094 48.4294 45.824 48.4636 47.9255 48.3514L47.9256 48.3512Z" fill="#002F27"/>
<path d="M4.08489 44.9287C3.8267 44.9419 3.60685 44.7423 3.59364 44.483C3.58043 44.2236 3.77912 44.0026 4.03721 43.9893C4.94002 43.9414 5.65531 44.3275 6.45566 44.7597C6.60505 44.8403 6.75767 44.9228 6.90116 44.997C7.5548 45.3346 8.3022 45.5689 9.16366 45.7077C10.0442 45.8495 11.0443 45.8922 12.1843 45.8435C14.8099 45.7313 17.3904 44.809 19.9199 43.9049C22.5804 42.954 25.1859 42.0226 27.8238 42.0238C30.5226 42.025 33.4604 43.1414 36.2101 44.1862C36.5974 44.3333 36.983 44.4798 37.162 44.5469C39.1545 45.2936 40.7107 45.7567 42.2512 46.0057C43.7884 46.2542 45.324 46.2912 47.2777 46.1863C47.2942 46.1854 47.3106 46.1855 47.3267 46.1863L50.7176 46.1935L62.8474 46.1748C63.1055 46.1748 63.3148 46.3852 63.3148 46.6446C63.3148 46.9039 63.1054 47.1143 62.8474 47.1143L50.7176 47.133L47.3244 47.1257C45.3084 47.234 43.7149 47.1944 42.1046 46.934C40.4973 46.6742 38.8872 46.1962 36.8357 45.4273C36.3852 45.2585 36.1344 45.1631 35.8802 45.0666C33.2054 44.0503 30.3475 42.9643 27.8238 42.9632C25.3531 42.9621 22.8189 43.8679 20.2315 44.7926C17.6394 45.7191 14.995 46.6643 12.221 46.7828C11.0209 46.8341 9.96058 46.788 9.01717 46.636C8.05464 46.4809 7.21402 46.2163 6.47241 45.8332C6.30583 45.7472 6.15751 45.6671 6.0122 45.5886C5.33343 45.2222 4.72693 44.8947 4.085 44.9287H4.08489Z" fill="#002F27"/>
<path d="M19.3361 27.7215C19.1246 27.5719 19.0737 27.2783 19.2225 27.0657C19.3714 26.8531 19.6635 26.8019 19.8751 26.9515L23.2024 29.2971C23.4139 29.4467 23.4648 29.7403 23.316 29.9529C23.1671 30.1656 22.875 30.2167 22.6634 30.0671L19.3361 27.7215Z" fill="#002F27"/>
<path d="M8.39553 17.3651C8.28169 17.2501 8.28212 17.064 8.39671 16.9495C8.51131 16.835 8.69636 16.8355 8.81031 16.9507C9.3514 17.4974 9.93255 17.898 10.5336 18.1636C11.1596 18.4404 11.807 18.5704 12.453 18.5666C12.6143 18.5659 12.7457 18.6968 12.7463 18.8589C12.747 19.0211 12.6167 19.1531 12.4554 19.1537C11.7268 19.1581 10.9988 19.0124 10.2976 18.7024C9.63257 18.4085 8.99118 17.9667 8.39564 17.365L8.39553 17.3651Z" fill="#002F27"/>
<path d="M8.43591 15.1257C8.27599 14.9212 8.31122 14.6251 8.51474 14.4644C8.71827 14.3037 9.01287 14.3391 9.17279 14.5436C9.75726 15.2924 10.4004 15.8376 11.0719 16.1969C11.7736 16.5725 12.5107 16.748 13.2469 16.7436C13.9744 16.7391 14.7053 16.5578 15.4046 16.2188C16.1187 15.8726 16.7967 15.3643 17.4025 14.7137C17.5786 14.5245 17.8741 14.5146 18.0624 14.6916C18.2506 14.8686 18.2605 15.1656 18.0844 15.3548C17.3963 16.0938 16.6248 16.6718 15.8116 17.0661C14.9898 17.4644 14.1224 17.6776 13.2506 17.6829C12.3631 17.6883 11.4756 17.4773 10.6319 17.0257C9.84544 16.6048 9.10115 15.9778 8.43602 15.1256L8.43591 15.1257Z" fill="#002F27"/>
<path d="M40.4866 28.4604C40.3253 28.4661 40.1898 28.3393 40.1841 28.1772C40.1785 28.0151 40.3046 27.879 40.466 27.8733C41.0214 27.8521 41.5134 27.8212 41.9419 27.7944C42.1416 27.7818 42.3269 27.7702 42.5223 27.7597C42.6836 27.7514 42.8211 27.8762 42.8293 28.0383C42.8376 28.2004 42.7134 28.3386 42.5521 28.3469C42.3882 28.3556 42.19 28.3681 41.9762 28.3815C41.5577 28.4077 41.0771 28.4379 40.4866 28.4604Z" fill="#002F27"/>
</g>
<defs>
<clipPath id="clip0_485_779">
<rect width="67" height="49" fill="white"/>
</clipPath>
</defs>
</svg>
