<svg width="48" height="40" viewBox="0 0 48 40" fill="none" xmlns="http://www.w3.org/2000/svg">
<g clip-path="url(#clip0_485_795)">
<path d="M13.0609 21.8736L15.8163 18.7813L19.5637 26.1937C19.7015 26.4666 19.9862 26.6394 20.2985 26.6394C20.62 26.6212 20.9047 26.4211 21.0241 26.121L24.5419 17.0259L26.3789 21.6917C26.4983 22.0009 26.8014 22.201 27.132 22.201H30.6498C31.0999 22.201 31.4673 21.8372 31.4673 21.3916C31.4673 20.9459 31.0999 20.5821 30.6498 20.5821H27.7658L25.3318 14.4975C25.2032 14.1883 24.9001 13.9882 24.5695 13.9882C24.2388 13.9882 23.9357 14.1974 23.8163 14.5066L20.1975 23.8108L16.7532 16.9896C16.6246 16.744 16.3766 16.5803 16.101 16.553C15.8347 16.5166 15.5683 16.6167 15.3846 16.8167L12.0597 20.5275H0.817451C0.367394 20.5275 0 20.8913 0 21.337C0 21.7826 0.367394 22.1464 0.817451 22.1464H12.4271C12.6659 22.1464 12.9047 22.0555 13.0609 21.8736Z" fill="#002F27"/>
<path d="M44.9047 4.48385C42.6544 1.60982 39.1734 -0.0454777 35.4994 -2.43599e-06C32.1929 -0.0363826 29.0057 1.20054 26.6177 3.45611C25.9013 4.12915 25.2583 4.87494 24.698 5.6844C24.1378 4.87494 23.4856 4.12915 22.7692 3.45611C20.3812 1.20054 17.1848 -0.0363826 13.8875 -2.43599e-06C10.2135 -0.0454777 6.73248 1.60982 4.4822 4.48385C2.54419 6.91223 1.46038 9.9045 1.40527 12.9968C1.40527 13.6244 1.46038 14.2519 1.56142 14.8704C1.63489 15.316 2.0574 15.6162 2.49827 15.5434C2.94833 15.4707 3.25143 15.0523 3.17795 14.6066C3.0861 14.0791 3.04018 13.5334 3.04018 12.9968C3.10447 10.2683 4.06888 7.63074 5.79563 5.4934C7.73363 3.02865 10.7279 1.60073 13.8875 1.63711C16.7531 1.57344 19.527 2.63756 21.6119 4.5839C22.5672 5.45702 23.3571 6.47567 23.9633 7.61255C24.0918 7.90359 24.3766 8.08549 24.698 8.08549C25.0195 8.08549 25.3042 7.90359 25.4328 7.61255C26.039 6.47567 26.8289 5.45702 27.7841 4.5839C29.8691 2.63756 32.6337 1.58254 35.4994 1.63711C38.6774 1.58254 41.6992 3.01046 43.6556 5.4934C45.3823 7.63074 46.3467 10.2683 46.411 12.9968C46.411 23.5743 27.8025 36.1983 24.698 38.2265C19.7199 34.9613 15.0815 31.2142 10.8657 27.0305C10.5534 26.703 10.0298 26.6939 9.69919 27.0032C9.36853 27.3124 9.35935 27.8308 9.67163 28.1582C14.1171 32.5512 19.0034 36.4802 24.2572 39.8818C24.3858 39.9636 24.5419 40 24.698 40C24.8542 40 25.0011 39.9636 25.1297 39.8818C29.1343 37.2806 32.9277 34.3884 36.4914 31.2233C44.1332 24.3747 48 18.2447 48 13.0332C47.9449 9.92269 46.8611 6.92132 44.9047 4.48385Z" fill="#002F27"/>
</g>
<defs>
<clipPath id="clip0_485_795">
<rect width="48" height="40" fill="white"/>
</clipPath>
</defs>
</svg>
