<svg width="68" height="42" viewBox="0 0 68 42" fill="none" xmlns="http://www.w3.org/2000/svg">
<g clip-path="url(#clip0_485_775)">
<path d="M67.9372 13.2036C67.8352 12.9863 67.6153 12.8389 67.3641 12.8389H48.3718C49.6202 10.4806 51.7165 8.91356 56.5529 6.95087L55.5793 9.03768C55.438 9.34799 55.5793 9.72036 55.8855 9.86C55.9719 9.89878 56.0582 9.9143 56.1446 9.9143C56.3801 9.9143 56.6078 9.78242 56.7177 9.54969L58.3429 6.05874C58.3429 6.05874 58.3429 6.05098 58.3429 6.04322C58.3429 6.04322 58.343 6.03547 58.3508 6.02771C58.3587 5.99668 58.3587 5.96565 58.3665 5.94237C58.3665 5.9191 58.3822 5.88807 58.3822 5.8648C58.3822 5.84928 58.3822 5.82601 58.3822 5.81049C58.3822 5.77171 58.3744 5.73292 58.3587 5.69413C58.3587 5.6631 58.3587 5.62431 58.3429 5.59328C58.3429 5.59328 58.343 5.58552 58.3351 5.57776C58.3194 5.53898 58.2958 5.50795 58.2723 5.47691C58.2566 5.44588 58.2409 5.41485 58.2173 5.39158C58.2173 5.39158 58.2095 5.38382 58.2016 5.37607C58.1702 5.34503 58.1388 5.32952 58.0996 5.30625C58.0996 5.30625 58.0525 5.2597 58.021 5.25194C58.021 5.25194 58.0132 5.25194 58.0053 5.25194C57.9975 5.25194 57.9975 5.25194 57.9896 5.24418L54.1033 3.77799C53.7814 3.65386 53.4202 3.81677 53.2946 4.13484C53.169 4.4529 53.3338 4.80976 53.6557 4.93388L56.0425 5.83377C50.4917 8.10676 48.2698 10.0151 46.9664 12.8545H35.323C36.4222 9.21611 38.5027 6.36129 44.9015 3.57629L43.873 6.04322C43.7396 6.36129 43.8966 6.71814 44.2106 6.85002C44.2892 6.88105 44.3677 6.89657 44.454 6.89657C44.6974 6.89657 44.933 6.74917 45.035 6.51644L46.6445 2.66088C46.6445 2.66088 46.6445 2.65313 46.6445 2.64537C46.6681 2.58331 46.6838 2.52124 46.6916 2.45143C46.6916 2.45143 46.6916 2.43591 46.6916 2.42815C46.6916 2.41264 46.6916 2.38936 46.6916 2.37385C46.6916 2.31955 46.6759 2.26524 46.6602 2.2187C46.6524 2.19542 46.6445 2.17991 46.6367 2.15663C46.6131 2.10233 46.5739 2.04803 46.5346 2.00924C46.5268 2.00148 46.5189 1.99372 46.5111 1.98597C46.464 1.93942 46.4168 1.90839 46.3619 1.87736L42.8916 0.0698223C42.5776 -0.085331 42.2086 0.0310339 42.0437 0.333583C41.8867 0.636132 42.0044 1.0085 42.3106 1.17141L44.6032 2.34282C37.3565 5.45364 35.1817 8.75841 34.0354 12.8389H24.1192C23.9543 12.8389 23.7973 12.901 23.6795 13.0174L10.4108 26.0037C10.2303 26.1821 10.1753 26.4459 10.2695 26.6786C10.3637 26.9113 10.5993 27.0587 10.8505 27.0587H29.8428C26.5845 32.4658 21.5361 34.4285 21.489 34.4518C21.1671 34.5759 21.0022 34.9328 21.1279 35.2508C21.2221 35.4991 21.4576 35.6465 21.7167 35.6465C21.7874 35.6465 21.8659 35.631 21.9365 35.6077C22.1721 35.5224 27.6758 33.4045 31.1539 27.3147C31.2011 27.2294 31.2246 27.1441 31.2325 27.0587H43.0408C39.8532 33.4511 34.0354 35.7241 33.9726 35.7473C33.6507 35.8714 33.4858 36.2283 33.6114 36.5464C33.7056 36.7946 33.9412 36.942 34.2002 36.942C34.2709 36.942 34.3494 36.9265 34.4201 36.9032C34.6949 36.8024 41.0858 34.3199 44.4226 27.0587H55.9954C56.176 27.0587 56.3487 26.9812 56.4665 26.8415L67.843 13.863C68 13.6768 68.0393 13.4208 67.9372 13.2036ZM55.7049 25.8253H12.3737L24.3783 14.0802H33.7213C33.525 14.918 33.3523 15.7869 33.1796 16.6945C32.9126 18.0521 32.6378 19.4562 32.2374 20.9845C32.1511 21.3181 32.3552 21.6516 32.6849 21.737C32.7399 21.7525 32.787 21.7603 32.842 21.7603C33.1168 21.7603 33.3759 21.5741 33.4465 21.2948C33.8548 19.7277 34.1296 18.3081 34.4044 16.935C34.6007 15.9342 34.7891 14.9878 35.0089 14.0879H46.4875C46.0478 15.3292 45.7024 16.7488 45.2941 18.4245C45.1371 19.0683 44.9722 19.751 44.7838 20.4802C44.6974 20.8138 44.9015 21.1474 45.2392 21.2327C45.2941 21.2482 45.3412 21.2482 45.3962 21.2482C45.6788 21.2482 45.9301 21.0621 46.0007 20.7828C46.1892 20.0458 46.354 19.3631 46.5111 18.7115C46.9664 16.8574 47.3276 15.3602 47.8222 14.0879H65.998L55.7128 25.833L55.7049 25.8253Z" fill="#002F27"/>
<path d="M26.2312 37.679C20.8138 42.0621 13.9989 40.464 13.936 40.4485C13.5984 40.3709 13.2608 40.5648 13.1745 40.8984C13.0881 41.232 13.2922 41.5656 13.6298 41.6509C13.7555 41.6819 15.1137 42.0078 17.0844 42.0078C19.7774 42.0078 23.6088 41.4104 27.0241 38.6487C27.2911 38.4315 27.3303 38.0436 27.1105 37.7798C26.8907 37.5161 26.4981 37.4773 26.2312 37.6945V37.679Z" fill="#002F27"/>
<path d="M18.7488 31.147C18.6154 30.829 18.2464 30.6816 17.9245 30.8212C6.83059 35.5068 1.33469 29.1688 1.107 28.8973C0.887165 28.6335 0.494601 28.5947 0.227657 28.812C-0.0392871 29.0292 -0.0785435 29.4171 0.141293 29.6808C0.204103 29.7584 1.74296 31.5814 4.7814 32.7684C6.15538 33.3036 7.98473 33.7613 10.238 33.7613C12.4914 33.7613 15.2707 33.2881 18.4191 31.9616C18.741 31.8297 18.8823 31.4651 18.7488 31.147Z" fill="#002F27"/>
</g>
<defs>
<clipPath id="clip0_485_775">
<rect width="68" height="42" fill="white"/>
</clipPath>
</defs>
</svg>
